<svg width="129" height="25" viewBox="0 0 129 25" fill="none" xmlns="http://www.w3.org/2000/svg">
<path d="M4.872 11.224C2.254 11.224 0.28 9.894 0.28 7.598H2.828C2.828 8.76 3.71 9.194 4.844 9.194C5.782 9.194 6.258 8.816 6.258 8.298C6.258 7.444 5.264 7.22 3.878 6.8C2.142 6.268 0.588 5.596 0.588 3.804C0.588 1.62 2.296 0.766 4.452 0.766C6.79 0.766 8.624 1.998 8.694 4.028H6.146C6.034 3.258 5.418 2.796 4.452 2.796C3.696 2.796 3.164 3.048 3.164 3.622C3.164 4.294 3.724 4.518 4.998 4.896C6.888 5.456 8.834 5.988 8.834 8.06C8.834 9.978 7.378 11.224 4.872 11.224ZM18.5141 3.608C19.9561 3.608 20.8101 4.518 20.8101 6.156V11H18.5421V6.87C18.5421 5.792 18.3181 5.428 17.5201 5.428C16.8061 5.428 16.3581 5.862 16.3581 6.856V11H14.1181V6.87C14.1181 5.792 13.8941 5.428 13.0961 5.428C12.3961 5.428 11.9341 5.862 11.9341 6.856V11H9.69413V3.832H11.9341V4.868H11.9621C12.3401 4.21 13.1241 3.608 14.2021 3.608C15.1401 3.608 15.7981 4.126 16.0781 4.868H16.1061C16.7221 4.154 17.3521 3.608 18.5141 3.608ZM23.9868 11.224C22.5868 11.224 21.7048 10.398 21.7048 9.124C21.7048 7.64 22.9228 7.066 24.4488 6.744C25.2328 6.576 26.3388 6.464 26.3388 5.75C26.3388 5.358 26.0308 5.106 25.3868 5.106C24.5608 5.106 24.1828 5.442 24.1128 6.142H21.9848C22.0548 4.77 23.0628 3.594 25.4848 3.594C27.4308 3.594 28.5088 4.378 28.5088 6.576V9.348C28.5088 9.726 28.5508 9.894 28.7748 9.894C28.8308 9.894 28.8728 9.894 28.9568 9.88V10.944C28.5088 11.028 28.0468 11.07 27.7248 11.07C26.8288 11.07 26.4928 10.734 26.3808 10.132H26.3528C25.8488 10.762 25.0228 11.224 23.9868 11.224ZM24.9248 9.684C25.8208 9.684 26.3388 8.928 26.3388 8.102V7.5C26.0448 7.612 25.7088 7.696 25.1208 7.836C24.2948 8.032 24.0008 8.382 24.0008 8.886C24.0008 9.432 24.3508 9.684 24.9248 9.684ZM33.9192 3.776C34.1152 3.776 34.2832 3.776 34.5352 3.832V5.792C34.3532 5.764 34.2272 5.75 34.0732 5.75C33.0652 5.75 32.1412 6.38 32.1412 7.668V11H29.9012V3.832H32.1412V5.008H32.1692C32.5192 4.252 33.1352 3.776 33.9192 3.776ZM38.8299 9.46C39.0399 9.46 39.1659 9.446 39.4319 9.404V10.986C38.9559 11.098 38.5499 11.14 38.1019 11.14C36.5339 11.14 35.8619 10.426 35.8619 8.676V5.512H34.8679V3.832H35.8619V1.83H38.1019V3.832H39.3479V5.512H38.1019V8.62C38.1019 9.39 38.3959 9.46 38.8299 9.46ZM47.2894 11H44.7694L42.2214 0.99H44.7414L46.0294 7.78H46.0574L47.6114 0.99H49.9914L51.5454 7.78H51.5734L52.8614 0.99H55.3814L52.8334 11H50.3134L48.8154 4.756H48.7874L47.2894 11ZM62.4832 7.682V8.018H57.3312C57.3312 9.012 58.0312 9.558 58.8712 9.558C59.6692 9.558 60.0052 9.194 60.1452 8.83H62.4272C62.0212 10.286 60.8312 11.238 58.8152 11.238C56.4912 11.238 55.0912 9.656 55.0912 7.416C55.0912 5.316 56.4072 3.594 58.8152 3.594C61.2512 3.594 62.4832 5.036 62.4832 7.682ZM57.3452 6.632H60.2292C60.2292 5.708 59.6832 5.218 58.8152 5.218C57.9612 5.218 57.4012 5.708 57.3452 6.632ZM65.4126 11.224C64.0126 11.224 63.1306 10.398 63.1306 9.124C63.1306 7.64 64.3486 7.066 65.8746 6.744C66.6586 6.576 67.7646 6.464 67.7646 5.75C67.7646 5.358 67.4566 5.106 66.8126 5.106C65.9866 5.106 65.6086 5.442 65.5386 6.142H63.4106C63.4806 4.77 64.4886 3.594 66.9106 3.594C68.8566 3.594 69.9346 4.378 69.9346 6.576V9.348C69.9346 9.726 69.9766 9.894 70.2006 9.894C70.2566 9.894 70.2986 9.894 70.3826 9.88V10.944C69.9346 11.028 69.4726 11.07 69.1506 11.07C68.2546 11.07 67.9186 10.734 67.8066 10.132H67.7786C67.2746 10.762 66.4486 11.224 65.4126 11.224ZM66.3506 9.684C67.2466 9.684 67.7646 8.928 67.7646 8.102V7.5C67.4706 7.612 67.1346 7.696 66.5466 7.836C65.7206 8.032 65.4266 8.382 65.4266 8.886C65.4266 9.432 65.7766 9.684 66.3506 9.684ZM73.5669 11H71.3269V0.99H73.5669V11ZM78.3416 9.46C78.5516 9.46 78.6776 9.446 78.9436 9.404V10.986C78.4676 11.098 78.0616 11.14 77.6136 11.14C76.0456 11.14 75.3736 10.426 75.3736 8.676V5.512H74.3796V3.832H75.3736V1.83H77.6136V3.832H78.8596V5.512H77.6136V8.62C77.6136 9.39 77.9076 9.46 78.3416 9.46ZM84.5329 3.608C85.9189 3.608 86.8569 4.518 86.8569 6.156V11H84.6169V6.87C84.6169 5.792 84.2389 5.428 83.4969 5.428C82.6429 5.428 82.1529 5.862 82.1529 6.856V11H79.9129V0.99H82.1529V4.868H82.1809C82.5589 4.21 83.2589 3.608 84.5329 3.608ZM92.7017 11.224C91.3017 11.224 90.4197 10.398 90.4197 9.124C90.4197 7.64 91.6377 7.066 93.1637 6.744C93.9477 6.576 95.0537 6.464 95.0537 5.75C95.0537 5.358 94.7457 5.106 94.1017 5.106C93.2757 5.106 92.8977 5.442 92.8277 6.142H90.6997C90.7697 4.77 91.7777 3.594 94.1997 3.594C96.1457 3.594 97.2237 4.378 97.2237 6.576V9.348C97.2237 9.726 97.2657 9.894 97.4897 9.894C97.5457 9.894 97.5877 9.894 97.6717 9.88V10.944C97.2237 11.028 96.7617 11.07 96.4397 11.07C95.5437 11.07 95.2077 10.734 95.0957 10.132H95.0677C94.5637 10.762 93.7377 11.224 92.7017 11.224ZM93.6397 9.684C94.5357 9.684 95.0537 8.928 95.0537 8.102V7.5C94.7597 7.612 94.4237 7.696 93.8357 7.836C93.0097 8.032 92.7157 8.382 92.7157 8.886C92.7157 9.432 93.0657 9.684 93.6397 9.684ZM103.236 3.608C104.622 3.608 105.56 4.518 105.56 6.156V11H103.32V6.87C103.32 5.792 102.942 5.428 102.2 5.428C101.346 5.428 100.856 5.862 100.856 6.856V11H98.616V3.832H100.856V4.868H100.884C101.262 4.21 101.962 3.608 103.236 3.608ZM111.679 4.546V0.99H113.919V11H111.679V10.286H111.651C111.371 10.664 110.615 11.224 109.579 11.224C107.675 11.224 106.457 9.768 106.457 7.416C106.457 5.064 107.675 3.608 109.579 3.608C110.615 3.608 111.371 4.168 111.651 4.546H111.679ZM110.195 9.544C111.105 9.544 111.637 8.816 111.637 7.416C111.637 6.016 111.105 5.288 110.195 5.288C109.285 5.288 108.753 6.016 108.753 7.416C108.753 8.816 109.285 9.544 110.195 9.544ZM3.36 24H0.84V13.99H5.558C7.784 13.99 9.128 15.026 9.128 16.846C9.128 18.246 8.344 19.072 7.098 19.352V19.38C9.604 19.814 8.694 23.692 9.268 23.86V24H6.65C6.16 23.58 7.07 20.514 4.928 20.514H3.36V24ZM3.36 18.456H5.068C6.076 18.456 6.608 18.092 6.608 17.252C6.608 16.412 6.076 16.048 5.068 16.048H3.36V18.456ZM17.0926 20.682V21.018H11.9406C11.9406 22.012 12.6406 22.558 13.4806 22.558C14.2786 22.558 14.6146 22.194 14.7546 21.83H17.0366C16.6306 23.286 15.4406 24.238 13.4246 24.238C11.1006 24.238 9.70058 22.656 9.70058 20.416C9.70058 18.316 11.0166 16.594 13.4246 16.594C15.8606 16.594 17.0926 18.036 17.0926 20.682ZM11.9546 19.632H14.8386C14.8386 18.708 14.2926 18.218 13.4246 18.218C12.5706 18.218 12.0106 18.708 11.9546 19.632ZM21.4393 22.46C21.6493 22.46 21.7753 22.446 22.0413 22.404V23.986C21.5653 24.098 21.1593 24.14 20.7113 24.14C19.1433 24.14 18.4713 23.426 18.4713 21.676V18.512H17.4773V16.832H18.4713V14.83H20.7113V16.832H21.9573V18.512H20.7113V21.62C20.7113 22.39 21.0053 22.46 21.4393 22.46ZM25.2505 15.978H23.0105V13.99H25.2505V15.978ZM25.2505 24H23.0105V16.832H25.2505V24ZM30.5012 16.776C30.6972 16.776 30.8652 16.776 31.1172 16.832V18.792C30.9352 18.764 30.8092 18.75 30.6552 18.75C29.6472 18.75 28.7232 19.38 28.7232 20.668V24H26.4832V16.832H28.7232V18.008H28.7512C29.1012 17.252 29.7172 16.776 30.5012 16.776ZM38.7352 20.682V21.018H33.5832C33.5832 22.012 34.2832 22.558 35.1232 22.558C35.9212 22.558 36.2572 22.194 36.3972 21.83H38.6792C38.2732 23.286 37.0832 24.238 35.0672 24.238C32.7432 24.238 31.3432 22.656 31.3432 20.416C31.3432 18.316 32.6592 16.594 35.0672 16.594C37.5032 16.594 38.7352 18.036 38.7352 20.682ZM33.5972 19.632H36.4812C36.4812 18.708 35.9352 18.218 35.0672 18.218C34.2132 18.218 33.6532 18.708 33.5972 19.632ZM48.4965 16.608C49.9385 16.608 50.7925 17.518 50.7925 19.156V24H48.5245V19.87C48.5245 18.792 48.3005 18.428 47.5025 18.428C46.7885 18.428 46.3405 18.862 46.3405 19.856V24H44.1005V19.87C44.1005 18.792 43.8765 18.428 43.0785 18.428C42.3785 18.428 41.9165 18.862 41.9165 19.856V24H39.6765V16.832H41.9165V17.868H41.9445C42.3225 17.21 43.1065 16.608 44.1845 16.608C45.1225 16.608 45.7805 17.126 46.0605 17.868H46.0885C46.7045 17.154 47.3345 16.608 48.4965 16.608ZM59.0652 20.682V21.018H53.9132C53.9132 22.012 54.6132 22.558 55.4532 22.558C56.2512 22.558 56.5872 22.194 56.7272 21.83H59.0092C58.6032 23.286 57.4132 24.238 55.3972 24.238C53.0732 24.238 51.6732 22.656 51.6732 20.416C51.6732 18.316 52.9892 16.594 55.3972 16.594C57.8332 16.594 59.0652 18.036 59.0652 20.682ZM53.9272 19.632H56.8112C56.8112 18.708 56.2652 18.218 55.3972 18.218C54.5432 18.218 53.9832 18.708 53.9272 19.632ZM64.6266 16.608C66.0126 16.608 66.9506 17.518 66.9506 19.156V24H64.7106V19.87C64.7106 18.792 64.3326 18.428 63.5906 18.428C62.7366 18.428 62.2466 18.862 62.2466 19.856V24H60.0066V16.832H62.2466V17.868H62.2746C62.6526 17.21 63.3526 16.608 64.6266 16.608ZM71.615 22.46C71.825 22.46 71.951 22.446 72.217 22.404V23.986C71.741 24.098 71.335 24.14 70.887 24.14C69.319 24.14 68.647 23.426 68.647 21.676V18.512H67.653V16.832H68.647V14.83H70.887V16.832H72.133V18.512H70.887V21.62C70.887 22.39 71.181 22.46 71.615 22.46ZM78.5963 24H76.0763V13.99H80.9343C83.0203 13.99 84.3223 15.082 84.3223 17.182C84.3223 19.282 83.0203 20.374 80.9343 20.374H78.5963V24ZM78.5963 18.316H80.3463C81.2143 18.316 81.7463 18.022 81.7463 17.182C81.7463 16.342 81.2143 16.048 80.3463 16.048H78.5963V18.316ZM88.2937 24.238C85.9277 24.238 84.4857 22.698 84.4857 20.43C84.4857 18.176 85.9277 16.594 88.3357 16.594C90.7017 16.594 92.1437 18.134 92.1437 20.388C92.1437 22.656 90.7017 24.238 88.2937 24.238ZM88.3217 22.558C89.3157 22.558 89.8757 21.802 89.8757 20.416C89.8757 19.03 89.3157 18.274 88.3217 18.274C87.3137 18.274 86.7537 19.03 86.7537 20.416C86.7537 21.802 87.3137 22.558 88.3217 22.558ZM97.9932 17.546V13.99H100.233V24H97.9932V23.286H97.9652C97.6852 23.664 96.9292 24.224 95.8932 24.224C93.9892 24.224 92.7712 22.768 92.7712 20.416C92.7712 18.064 93.9892 16.608 95.8932 16.608C96.9292 16.608 97.6852 17.168 97.9652 17.546H97.9932ZM96.5092 22.544C97.4192 22.544 97.9512 21.816 97.9512 20.416C97.9512 19.016 97.4192 18.288 96.5092 18.288C95.5992 18.288 95.0672 19.016 95.0672 20.416C95.0672 21.816 95.5992 22.544 96.5092 22.544ZM104.848 24.238C102.58 24.238 101.152 22.656 101.152 20.416C101.152 18.19 102.58 16.594 104.792 16.594C106.864 16.594 108.124 17.826 108.306 19.506H106.052C105.982 18.918 105.73 18.274 104.834 18.274C103.91 18.274 103.448 19.072 103.448 20.416C103.448 21.76 103.896 22.558 104.834 22.558C105.716 22.558 105.982 21.956 106.052 21.298H108.306C108.194 23.006 106.906 24.238 104.848 24.238ZM111.131 24.224C109.731 24.224 108.849 23.398 108.849 22.124C108.849 20.64 110.067 20.066 111.593 19.744C112.377 19.576 113.483 19.464 113.483 18.75C113.483 18.358 113.175 18.106 112.531 18.106C111.705 18.106 111.327 18.442 111.257 19.142H109.129C109.199 17.77 110.207 16.594 112.629 16.594C114.575 16.594 115.653 17.378 115.653 19.576V22.348C115.653 22.726 115.695 22.894 115.919 22.894C115.975 22.894 116.017 22.894 116.101 22.88V23.944C115.653 24.028 115.191 24.07 114.869 24.07C113.973 24.07 113.637 23.734 113.525 23.132H113.497C112.993 23.762 112.167 24.224 111.131 24.224ZM112.069 22.684C112.965 22.684 113.483 21.928 113.483 21.102V20.5C113.189 20.612 112.853 20.696 112.265 20.836C111.439 21.032 111.145 21.382 111.145 21.886C111.145 22.432 111.495 22.684 112.069 22.684ZM120.224 24.224C117.718 24.224 116.738 23.02 116.682 21.62H118.782C118.852 22.334 119.328 22.684 120.182 22.684C120.84 22.684 121.134 22.474 121.134 22.068C121.134 21.424 120.42 21.354 119.384 21.116C118.124 20.822 116.822 20.318 116.822 18.862C116.822 17.518 117.942 16.608 119.958 16.608C122.254 16.608 123.15 17.77 123.22 19.03H121.12C121.05 18.456 120.742 18.148 120 18.148C119.384 18.148 119.118 18.372 119.118 18.722C119.118 19.198 119.538 19.226 120.616 19.478C122.03 19.814 123.43 20.234 123.43 21.9C123.43 23.398 122.296 24.224 120.224 24.224ZM127.752 22.46C127.962 22.46 128.088 22.446 128.354 22.404V23.986C127.878 24.098 127.472 24.14 127.024 24.14C125.456 24.14 124.784 23.426 124.784 21.676V18.512H123.79V16.832H124.784V14.83H127.024V16.832H128.27V18.512H127.024V21.62C127.024 22.39 127.318 22.46 127.752 22.46Z" fill="white"/>
</svg>
