<?xml version="1.0" encoding="UTF-8"?> <svg xmlns="http://www.w3.org/2000/svg" xmlns:xlink="http://www.w3.org/1999/xlink" width="216.744" height="31.263" viewBox="0 0 216.744 31.263"><defs><clipPath id="clip-path"><rect id="Rectangle_46" data-name="Rectangle 46" width="216.744" height="31.263" fill="#fff"></rect></clipPath></defs><g id="Group_47" data-name="Group 47" transform="translate(2 -13)"><g id="Group_37" data-name="Group 37" transform="translate(-2 13)" clip-path="url(#clip-path)"><path id="Path_45" data-name="Path 45" d="M214.245.339C144.591-1.179,74.593,2.657,5.073,6.747.385,7.023-2.882,10.8,3.752,11.4c64.129,5.75,128.345.45,192.5-1.84,6.391-.227,6.3-4.706-.159-4.547A1143.636,1143.636,0,0,0,24.378,22.075c-6.423,1.14-3.282,4.559,1.659,4.59l78.522.508c27.664.178,55.437-.055,82.868,4.041,3.51.524,12.828-3.256,5.6-4.33-54.824-8.166-111.876-4.606-167.158-4.946l1.657,4.592A1120.41,1120.41,0,0,1,196.253,9.558q-.08-2.274-.159-4.547C132.948,7.253,69.662,12.7,6.559,6.779Q5.9,9.1,5.237,11.43C74.586,7.577,144.031,6.973,213.364,3.436c3.1-.158,5.319-3,.881-3.1" transform="translate(0 0)" fill="#fff"></path></g></g></svg> 