<svg xmlns="http://www.w3.org/2000/svg" xmlns:xlink="http://www.w3.org/1999/xlink" id="checkmark_1" data-name="checkmark 1" width="44.325" height="33.688" viewBox="0 0 44.325 33.688"><defs><clipPath id="clip-path"><rect id="Rectangle_15" data-name="Rectangle 15" width="44.325" height="33.688" fill="#272626"/></clipPath></defs><g id="Group_8" data-name="Group 8" clip-path="url(#clip-path)"><path id="Path_9" data-name="Path 9" d="M8.817,14.98c2.752,2.534,5.684,4.844,8.606,7.189.774.622,3.1.564,3.7-.325A55.174,55.174,0,0,1,45.456,1.333C47.509.458,43.428-.361,42.312.166,31.944,5.059,23.408,12.007,17.2,21.534l3.7-.325c-2.977-2.343-5.927-4.7-9.046-6.86-.621-.43-3.679.032-3.029.631" transform="translate(-1.699 0)" fill="#fff"/><path id="Path_10" data-name="Path 10" d="M22.693,5.7C15.9,5.561,9.1,5.824,2.313,5.987,1.744,6-.014,6.179,0,7.031.139,16,.165,24.968.213,33.937c0,.825,1.83.864,2.3.852,10.5-.273,20.988-.751,31.484-1.014.53-.014,1.967-.159,2-.9q.469-10.127.937-20.253c.053-1.139-4.108-1.127-4.162.142q-.417,10.125-.836,20.25l2-.9q-15.746.416-31.492.823l2.3.853c-.039-8.971-.1-17.941-.05-26.911L2.38,7.914c6.618-.1,13.25-.236,19.855-.637,1.6-.1,2.775-1.524.458-1.573" transform="translate(0 -1.103)" fill="#fff"/></g></svg>